<svg id="Layer_1" data-name="Layer 1" xmlns="http://www.w3.org/2000/svg" viewBox="0 0 200 200"><defs><style>.cls-1,.cls-2,.cls-3{fill:#4b545d;}.cls-1{opacity:0.7;}.cls-2{opacity:0.5;}</style></defs><title>PARTNERLOGO</title><g id="g3"><path id="path5" class="cls-1" d="M84.7,149.68V134.44a10.51,10.51,0,0,0,1.59-.76c7.27-4.29,8-16.46,1.71-27.19s-17.35-16-24.62-11.67-8,16.46-1.71,27.19a32.8,32.8,0,0,0,3.39,4.74v11.33l-15.67-9V73l-5.49-3.63a63.94,63.94,0,0,0,53.9,94.59v-6.59Z"/><path id="path7" class="cls-2" d="M66.5,60.45l9.58,5.68a33.31,33.31,0,0,0-.19,3.9c.09,8.44,11.52,14.85,24,14.72s21.33-7.68,21.27-15.1c-.07-8.44-8.19-15-20.64-15.42A46.48,46.48,0,0,0,90.36,55.3l-7-4.47L100,41.36l49,28.46,5.62-3.08A63.94,63.94,0,0,0,45.7,66.26l5.57,3.52L66.5,60.45Z"/><path id="path9" class="cls-3" d="M150.61,91.39l-10.41,5.44c-.38-.06-2.69-2.23-3.21-2.52-7.37-4.11-18.22,1.32-24.29,12.21s-5.55,23.33,1.83,27.43,18.35-.82,24.41-11.7a62.75,62.75,0,0,0,2.89-7.61l8.87-5.13L150.65,129,101.81,157.5l0,6.43a63.94,63.94,0,0,0,54.39-94.31l-5.62,3.08V91.39Z"/></g></svg>